<svg width="303" height="95" viewBox="0 0 303 95" fill="none" xmlns="http://www.w3.org/2000/svg">
<g clip-path="url(#clip0_59_469)">
<path d="M24.7045 38.8245L23.0345 35.661L14.7997 23.2372L8.69553 23.3523V35.431L8.81071 35.661L14.2814 36.9264V38.8245H0.748622V36.1212H5.58587L5.64346 35.8911V6.26952L5.52829 6.03945L0 4.77406V2.87598H15.8938C24.5318 2.87598 28.0445 6.09697 28.0445 12.5389C28.0445 18.5208 25.05 22.1444 18.0821 23.0647L26.6625 35.431L26.8928 35.661L31.6149 36.9264V38.8245H24.7045ZM15.6635 5.52179H8.69553V20.5339L14.3966 20.9365C20.8462 20.9365 24.8197 18.8659 24.8197 13.5743C24.8197 7.1898 22.2859 5.52179 15.6635 5.52179Z" fill="white"/>
<path d="M45.9347 39.3997C38.6212 39.3997 34.7053 35.4885 34.7053 26.2857C34.7053 16.5652 38.7939 12.1938 45.5315 12.1938C52.7874 12.1938 55.3788 15.7024 55.3788 23.4673L54.6302 26.1131L37.4695 25.883V25.9406C37.4695 33.3603 39.3698 36.6389 46.6833 36.6389C50.0809 36.6389 52.2691 35.7186 55.3212 33.9355L55.5516 35.0859C53.1905 38.0193 50.196 39.3997 45.9347 39.3997ZM44.7829 14.8972C39.9457 14.8972 37.9302 17.8881 37.5271 23.5248L52.5571 23.5823C52.5571 16.5652 51.0022 14.8972 44.7829 14.8972Z" fill="white"/>
<path d="M74.2287 39.3997C70.6007 39.3997 68.5852 38.0193 66.4545 36.8114H66.1666V47.3947L66.2818 47.6247L71.1766 48.8901V50.7882H59.6017V48.0849H63.2873L63.46 47.8548V16.9678L63.3449 16.7377L59.0259 15.99V14.322L66.1666 12.1938V15.6449H66.4545C69.2762 13.8043 71.6949 12.1938 75.2076 12.1938C83.5576 12.1938 85.9187 17.7731 85.9187 25.2504C85.9187 32.7277 82.5211 39.3997 74.2287 39.3997ZM74.5166 14.9547C71.119 14.9547 68.9883 15.99 66.1666 17.7155V34.4532C68.5276 35.6035 70.8311 36.6389 74.5742 36.6389C80.3328 36.6389 83.0394 32.7852 83.0394 25.9981C83.0394 17.7731 80.1601 14.9547 74.5166 14.9547Z" fill="white"/>
<path d="M117.591 37.8467L110.911 39.3997L110.451 35.3735H110.163C107.341 37.7892 104.116 39.3997 100.891 39.3997C95.363 39.3997 92.8868 37.0415 92.8868 31.6348V16.1626L92.7716 15.9325L88.4526 14.6671V12.769H95.5933V30.657C95.5933 34.7408 97.0906 36.5814 101.525 36.5814C104.462 36.5814 107.629 35.6036 110.451 33.3029V16.1626L110.335 15.9325L106.016 14.6671V12.769H113.157V35.2009L113.272 35.431L117.591 36.1787V37.8467Z" fill="white"/>
<path d="M133.524 39.3996C129.608 39.3996 128.226 38.0192 126.095 36.8113H125.807L124.828 39.3996H123.1V4.77397L122.985 4.5439L118.666 3.79617V2.12815L125.807 0V15.6448H126.095C128.917 13.8042 131.278 12.1937 135.078 12.1937C143.14 12.1937 145.559 17.773 145.559 25.2503C145.559 32.7276 141.528 39.3996 133.524 39.3996ZM134.387 14.9546C130.702 14.9546 128.629 15.9899 125.807 17.7154V34.4531C128.168 35.6034 129.838 36.6388 133.869 36.6388C139.34 36.6388 142.68 32.7851 142.68 25.998C142.68 17.773 139.743 14.9546 134.387 14.9546Z" fill="white"/>
<path d="M148.784 38.8244V36.1211H152.469L152.642 35.891V4.77397L152.527 4.5439L148.208 3.79617V2.12815L155.349 0V35.4309L155.464 35.6609L159.783 36.9263V38.8244H148.784Z" fill="white"/>
<path d="M163.814 38.8242V36.1209H167.499L167.672 35.8908V16.9675L167.557 16.7375L163.238 15.9897V14.3217L170.379 12.1936V35.4307L170.494 35.6608L174.813 36.9262V38.8242H163.814ZM169.227 6.61435C167.039 6.61435 166.405 5.63655 166.405 3.45088C166.405 1.38024 167.039 0.459961 169.227 0.459961C171.415 0.459961 171.876 1.38024 171.876 3.45088C171.876 5.63655 171.358 6.61435 169.227 6.61435Z" fill="white"/>
<path d="M188.787 39.3997C181.531 39.3997 177.558 35.546 177.558 26.2857C177.558 16.5077 181.819 12.1938 190.112 12.1938C196.504 12.1938 198.462 14.0919 198.462 15.875C198.462 17.0828 197.886 17.6005 196.273 17.6005C194.488 17.6005 193.567 16.7377 192.53 15.0697C191.782 14.9547 190.457 14.8972 189.363 14.8972C182.625 14.8972 180.322 18.5208 180.322 25.768C180.322 33.6479 182.395 36.6389 189.536 36.6389C192.933 36.6389 195.122 35.7186 198.174 33.9355L198.404 35.0859C196.043 38.0193 193.049 39.3997 188.787 39.3997Z" fill="white"/>
<path d="M40.0032 94.9998C32.4594 94.9998 28.6587 90.8585 28.6587 82.0583C28.6587 71.3025 34.6477 67.7939 41.2125 67.7939C48.7563 67.7939 52.557 71.9352 52.557 80.7354C52.557 91.4912 46.568 94.9998 40.0032 94.9998ZM47.547 72.6829C46.2225 71.36 43.9191 70.5548 40.4639 70.5548C34.4173 70.5548 31.4804 73.6032 31.4804 81.4831C31.4804 85.1068 31.8259 88.2702 33.6687 90.1108C34.9932 91.4337 37.2966 92.239 40.7518 92.239C46.7984 92.239 49.7353 89.1905 49.7353 81.3106C49.7353 77.687 49.3898 74.5235 47.547 72.6829Z" fill="white"/>
<path d="M72.5972 60.0872C70.8121 60.0872 69.7755 59.2244 68.9693 58.3041C68.7966 58.2466 68.451 58.1891 67.9903 58.1891C65.111 58.1891 63.4986 60.3172 63.4986 64.631V69.1749H71.6759L70.7545 71.7057H63.4986V90.8591L63.6714 91.2617L69.43 92.5271V94.4252H56.7034V91.7219H60.7345L60.7921 91.4918V71.9933L56.3579 71.5332V69.9802L60.7345 68.5998V65.2062C60.7345 57.844 64.3624 55.4282 69.9483 55.4282C73.749 55.4282 74.7855 56.7511 74.7855 58.3616C74.7855 59.5695 74.2097 60.0872 72.5972 60.0872Z" fill="white"/>
<path d="M113.253 94.4251L111.583 91.2616L103.348 78.8378L97.2441 78.9529V91.0316L97.3593 91.2616L102.83 92.527V94.4251H89.2972V91.7218H94.1345L94.192 91.4917V61.8701L94.0769 61.64L88.5486 60.3746V58.4766H104.442C113.08 58.4766 116.593 61.6976 116.593 68.1395C116.593 74.1214 113.599 77.745 106.631 78.6653L115.211 91.0316L115.441 91.2616L120.163 92.527V94.4251H113.253ZM104.212 61.1224H97.2441V76.1345L102.945 76.5371C109.395 76.5371 113.368 74.4665 113.368 69.1749C113.368 62.7904 110.834 61.1224 104.212 61.1224Z" fill="white"/>
<path d="M135.021 94.9998C127.707 94.9998 123.792 91.0886 123.792 81.8858C123.792 72.1653 127.88 67.7939 134.618 67.7939C141.874 67.7939 144.465 71.3025 144.465 79.0674L143.716 81.7132L126.556 81.4831V81.5407C126.556 88.9604 128.456 92.239 135.769 92.239C139.167 92.239 141.355 91.3187 144.407 89.5356L144.638 90.686C142.277 93.6194 139.282 94.9998 135.021 94.9998ZM133.869 70.4973C129.032 70.4973 127.016 73.4882 126.613 79.1249L141.643 79.1824C141.643 72.1653 140.088 70.4973 133.869 70.4973Z" fill="white"/>
<path d="M148.957 94.425V91.7217H152.642L152.815 91.4916V60.3746L152.7 60.1445L148.381 59.3968V57.7287L155.522 55.6006V91.0315L155.637 91.2615L159.956 92.5269V94.425H148.957Z" fill="white"/>
<path d="M182.99 94.9423C180.802 94.9423 179.995 93.3893 180.111 90.8585H179.823C177.807 93.1592 174.698 94.9998 171.185 94.9998C166.635 94.9998 163.871 92.6991 163.871 88.3853C163.871 82.6335 168.478 79.9302 179.765 78.5497V75.5588C179.765 71.8777 177.75 70.3247 173.315 70.3247C170.206 70.3247 167.787 71.4751 167.787 71.7627C167.787 72.1653 168.19 73.2006 168.19 73.7183C168.19 74.466 167.787 74.6961 165.541 74.6961C164.332 74.6961 163.814 74.466 163.814 73.8908C163.814 70.4973 169.169 67.7939 173.891 67.7939C179.42 67.7939 182.472 69.9796 182.472 74.9261V90.916C182.472 91.8938 182.99 92.2965 184.372 92.2965C185.409 92.2965 185.812 92.1239 186.848 91.7788L186.906 93.0442C186.1 93.9645 185.063 94.9423 182.99 94.9423ZM179.765 80.6204C169.975 82.3459 166.635 84.244 166.635 88.1552C166.635 91.3187 168.536 92.5265 171.876 92.5265C174.698 92.5265 178.153 90.686 179.765 89.3056V80.6204Z" fill="white"/>
<path d="M198.769 95.0004C194.22 95.0004 192.262 92.8147 192.377 87.9257L192.78 72.1658L188.346 71.7057V70.1527L191.974 68.8873L193.586 63.8833L195.429 64.2284V69.1749H205.334L204.412 71.7057H195.429L195.083 87.1204C194.968 91.1467 196.005 92.2395 199.69 92.2395C201.475 92.2395 203.145 91.7794 205.046 90.9166L205.161 92.2395C203.664 93.85 201.13 95.0004 198.769 95.0004Z" fill="white"/>
<path d="M208.328 94.4246V91.7213H212.014L212.186 91.4912V72.5679L212.071 72.3378L207.752 71.5901V69.9221L214.893 67.7939V91.0311L215.008 91.2611L219.327 92.5265V94.4246H208.328Z" fill="white"/>
<path d="M213.741 62.2149C211.553 62.2149 210.919 61.2371 210.919 59.0515C210.919 56.9808 211.553 56.0605 213.741 56.0605C215.929 56.0605 216.39 56.9808 216.39 59.0515C216.39 61.2371 215.872 62.2149 213.741 62.2149Z" fill="white"/>
<path d="M234.357 94.9998C226.813 94.9998 223.013 90.8585 223.013 82.0583C223.013 71.3025 229.002 67.7939 235.567 67.7939C243.11 67.7939 246.911 71.9352 246.911 80.7354C246.911 91.4912 240.922 94.9998 234.357 94.9998ZM241.901 72.6829C240.577 71.36 238.273 70.5548 234.818 70.5548C228.771 70.5548 225.834 73.6032 225.834 81.4831C225.834 85.1068 226.18 88.2702 228.023 90.1108C229.347 91.4337 231.651 92.239 235.106 92.239C241.152 92.239 244.089 89.1905 244.089 81.3106C244.089 77.687 243.744 74.5235 241.901 72.6829Z" fill="white"/>
<path d="M269.6 94.4246V91.7213H272.998L273.055 91.4912V76.5366C273.055 72.4529 271.558 70.6123 267.124 70.6123C264.187 70.6123 261.02 71.5901 258.198 73.8908V91.0311L258.313 91.2611L262.632 92.5265V94.4246H251.633V91.7213H255.319L255.491 91.4912V72.5679L255.376 72.3378L251.057 71.5901V69.9221L258.198 67.7939V71.8202H258.486C261.308 69.4044 264.532 67.7939 267.757 67.7939C273.285 67.7939 275.762 70.1522 275.762 75.5588V91.0311L275.877 91.2611L280.196 92.5265V94.4246H269.6Z" fill="white"/>
<path d="M292.404 95.0002C289.698 95.0002 286.646 94.3675 284.284 93.5622L283.421 86.3725H285.609L287.049 91.2615C288.949 91.9517 290.389 92.3544 292.98 92.3544C297.702 92.3544 300.293 90.8014 300.293 87.5229C300.293 83.6117 296.608 83.094 292.634 82.4613C288.2 81.7711 283.651 80.9659 283.651 75.2141C283.651 70.4401 286.991 67.7943 293.729 67.7943C296.435 67.7943 297.817 68.2545 299.66 68.8296L302.079 67.4492L302.654 75.7318H300.466L298.969 71.5905C297.414 71.0153 296.205 70.4401 293.21 70.4401C288.488 70.4401 286.358 72.1657 286.358 74.984C286.358 78.8377 290.043 79.2979 294.074 79.9305C298.451 80.6208 303 81.4835 303 87.2928C303 92.2393 299.199 95.0002 292.404 95.0002Z" fill="white"/>
<path d="M213.741 51.3824C211.553 51.3824 210.919 50.4046 210.919 48.2189C210.919 46.1483 211.553 45.228 213.741 45.228C215.929 45.228 216.39 46.1483 216.39 48.2189C216.39 50.4046 215.872 51.3824 213.741 51.3824Z" fill="#ED1C24"/>
</g>
<defs>
<clipPath id="clip0_59_469">
<rect width="303" height="95" fill="white"/>
</clipPath>
</defs>
</svg>
