<svg width="38" height="38" viewBox="0 0 38 38" fill="none" xmlns="http://www.w3.org/2000/svg">
<g clip-path="url(#clip0_53_305)">
<path d="M27.6391 11.0913H10.8479C10.1948 11.0913 9.6604 11.6257 9.6604 12.2788C9.6604 12.9319 10.1948 13.4663 10.8479 13.4663H27.6391C28.2923 13.4663 28.8266 12.9319 28.8266 12.2788C28.8266 11.6257 28.2923 11.0913 27.6391 11.0913Z" fill="#ED1C24"/>
<path d="M27.6391 17.8838H10.8479C10.1948 17.8838 9.6604 18.4182 9.6604 19.0713C9.6604 19.7244 10.1948 20.2588 10.8479 20.2588H27.6391C28.2923 20.2588 28.8266 19.7244 28.8266 19.0713C28.8266 18.4182 28.2923 17.8838 27.6391 17.8838Z" fill="#333333"/>
<path d="M27.6391 24.688H10.8479C10.1948 24.688 9.6604 25.2224 9.6604 25.8755C9.6604 26.5286 10.1948 27.063 10.8479 27.063H27.6391C28.2923 27.063 28.8266 26.5286 28.8266 25.8755C28.8266 25.2224 28.2923 24.688 27.6391 24.688Z" fill="#333333"/>
<path d="M19 0C8.52031 0 0 8.52031 0 19C0 29.4797 8.52031 38 19 38C29.4797 38 38 29.4797 38 19C38 8.52031 29.4797 0 19 0ZM19 35.625C9.8325 35.625 2.375 28.1675 2.375 19C2.375 9.8325 9.8325 2.375 19 2.375C28.1675 2.375 35.625 9.8325 35.625 19C35.625 28.1675 28.1675 35.625 19 35.625Z" fill="#333333"/>
</g>
<defs>
<clipPath id="clip0_53_305">
<rect width="38" height="38" fill="white"/>
</clipPath>
</defs>
</svg>
