<svg width="38" height="38" viewBox="0 0 38 38" fill="none" xmlns="http://www.w3.org/2000/svg">
<g clip-path="url(#clip0_44_153)">
<path d="M27.639 11.0913H10.8478C10.1947 11.0913 9.66028 11.6257 9.66028 12.2788C9.66028 12.9319 10.1947 13.4663 10.8478 13.4663H27.639C28.2922 13.4663 28.8265 12.9319 28.8265 12.2788C28.8265 11.6257 28.2922 11.0913 27.639 11.0913Z" fill="white"/>
<path d="M27.639 17.8838H10.8478C10.1947 17.8838 9.66028 18.4182 9.66028 19.0713C9.66028 19.7244 10.1947 20.2588 10.8478 20.2588H27.639C28.2922 20.2588 28.8265 19.7244 28.8265 19.0713C28.8265 18.4182 28.2922 17.8838 27.639 17.8838Z" fill="white"/>
<path d="M27.639 24.688H10.8478C10.1947 24.688 9.66028 25.2224 9.66028 25.8755C9.66028 26.5286 10.1947 27.063 10.8478 27.063H27.639C28.2922 27.063 28.8265 26.5286 28.8265 25.8755C28.8265 25.2224 28.2922 24.688 27.639 24.688Z" fill="white"/>
<path d="M19 0C8.52031 0 0 8.52031 0 19C0 29.4797 8.52031 38 19 38C29.4797 38 38 29.4797 38 19C38 8.52031 29.4797 0 19 0ZM19 35.625C9.8325 35.625 2.375 28.1675 2.375 19C2.375 9.8325 9.8325 2.375 19 2.375C28.1675 2.375 35.625 9.8325 35.625 19C35.625 28.1675 28.1675 35.625 19 35.625Z" fill="white"/>
</g>
<defs>
<clipPath id="clip0_44_153">
<rect width="38" height="38" fill="white"/>
</clipPath>
</defs>
</svg>
