<svg width="29" height="29" viewBox="0 0 29 29" fill="none" xmlns="http://www.w3.org/2000/svg">
<path d="M3.92499 2.87133L25.7488 13.3088C26.3939 13.6173 26.6667 14.3903 26.3582 15.0353C26.2306 15.3021 26.0156 15.5171 25.7488 15.6447L3.92499 26.0822C3.27995 26.3907 2.50696 26.1179 2.19847 25.4728C2.06441 25.1925 2.03563 24.8734 2.11738 24.5736L4.30021 16.5697C4.35489 16.3692 4.52416 16.2208 4.73011 16.1928L15.3054 14.7563C15.3965 14.7433 15.472 14.6834 15.5069 14.6016L15.5251 14.5366C15.5424 14.4153 15.4726 14.3016 15.3632 14.2588L15.3054 14.2437L4.74249 12.8072C4.53656 12.7792 4.36733 12.6308 4.31265 12.4303L2.11738 4.37992C1.92925 3.6901 2.33595 2.97838 3.02577 2.79025C3.32553 2.7085 3.64469 2.73727 3.92499 2.87133Z" fill="#4B4B4B"/>
</svg>
